<svg xmlns="http://www.w3.org/2000/svg" viewBox="0 0 512.001 493.511" height="493.511" width="512"><g fill="#007ebe"><path d="M259.687 175.09l-.08-.003c.025.005.052.018.075.022 0-.005.003-.012.005-.02zm126.39 72.74c.128.141.224.262.31.373-.242-.328-.263-.346-.31-.374zm-124.393-72.637c-.126-.007-.252-.016-.378-.025a.83.83 0 0 0 .265.073c.06 0 .091-.021.113-.048zm-92.1 75.05c-.944-.982-3.223-1.647-5.34-.046 1.338 1.598 1.89 2.26-.08 5.531a.89.89 0 0 0 .32.165l.242-.055c.466-.807.07-2.052 1.255-2.496-.514.994-.734 1.592-.77 2.736-.037 1.23-.037 1.23-.447 2.58.562.182 1.005-.394 1.56-.246.898-1.994 1.95-3.96 3.562-4.822-.023.184-.055.433-.036.62.107 1.155 1.292 1.437 2.214.156.066-.09.146-.222.206-.317-.337-.424-.407-.673-.493-1.763-.088-1.124-.248-1.92-1.533-1.91-.713 1.355-.713 1.355-1.016 1.432.227-.656-.118-.727-1.013-.74-.857-.014-1.034-.174-.823-.738.724-.11 1.669.807 2.192-.088z"/><path d="M351.416 279.471c1.954.337 3.416-1.486 5.355-1.22 2.044-4.78 2.669-5.792 10.205-9.324 3.456-1.62 3.992-2.289 5.578-4.276.235.23.235.23 2.72.68.295.99-.335 2.094.374 3.032.68.9 1.809 1.295 2.47 2.211.58.811.45 1.217.31 1.648-.383-1.316-.383-1.316-.763-1.575.667 1.53-.011 3.327.958 4.797.468-.222.332-.882.8-1.102 1.105 1.324 1.475 1.768 2.907 2.045 1.59.31 3.008-.714 4.574-.6 3.529 4.812 6.39 3.317 7.78 2-2.262-4.995-2.262-4.995-2.144-5.75.008-.049.863-4.61 3.34-.886.878-.252 1.778-.338 2.68-.4a159.983 159.983 0 0 0-4.938-10.295l.003.09c0 1.512-.946 2.238-2.753.697a.885.885 0 0 1 .246-.458c.52-.484 1.355-.505 2.405-.518a159.799 159.799 0 0 0-4.865-8.606 1.525 1.525 0 0 1-.526.196c-.76-.62-.727-.806-.65-1.254.152-.018.344-.013.513 0a115.36 115.36 0 0 0-.773-1.238c-.283-.392-.498-.69-.654-.903.22.327.283.557.366.928-.073.081-.167.19-.242.272-.137-.09-2.115-3.486-2.128-3.515-.292-.614-.526-1.094-1.028-1.07-.76.035-.55 1.157-1.32 1.184-.1.003-.225-.02-.322-.03.374.691 1.286 1.02 1.307 1.948-.41.137-.823-.032-1.24.026-.018.085-.04.196-.06.28 1.609 1.984 4.054 3.032 5.645 5.034.03.036.678.872-.683 1.192a7.77 7.77 0 0 1-.125.26c.476.34.74.527.886 1.454-.093.011-.214.028-.304.038-.08-.08-.187-.183-.265-.262.44.795 1.155 1.38 1.638 2.141-.058.086-.133.2-.19.282-1.057-.133-1.057-.133-1.07-.133-.101.153-.21.377-.26.552-.852-1.523-2.437-2.567-2.854-4.372-1.562-.89-1.646-.95-2.676-1.686-2.444-1.748-3.194-4.92-5.613-6.686-2.725-1.987-6.314-2.024-9.04-4.008-.567-.41-1.243-1.06-1.774-1.515a1.66 1.66 0 0 1-.265.54c-.938-.107-1.488-.9-2.27-1.286-.284 1.187.117 1.795 1.867 4.177 3.166.14 4.015 4.547 7.51 4.08.229-.142.302-.24.494-.506 1.769 2.082 4.93 2.421 6.295 5.014-1.626-1.076-1.795-1.083-2.413-1.106-.82 2.274 2.078 2.723 2.852 4.263 0 0-.005 0-.016.008-.824 1.355.67 2.91-.361 4.245.402 1.316 1.667 2.276 1.568 3.798-1.747-.939-4.056-.736-5.338-2.62.85-.91 2.283-.979 2.989-2.09.76-1.204.025-2.655.018-2.666-2.954-3.49-4.667-4.036-7.783-5.029-4.312-1.374-5.223-2.357-8.245-5.614-.885.101-1.747-.64-2.648-.08.199 1.748.28 2.47-.738 3.63-1.296 1.48-3.38 1.55-4.846 2.725.595 1.235 1.619 2.19 2.247 3.405-2.678 5.483-3.16 6.47-1.732 9.15 1.667 3.127 2.587 6.044-3.073 10.057a69.572 69.572 0 0 0-2.642 1.987c.78 1.33 1.396 2.383 2.73 2.614zm-25.963-85.412c1.397 1.461 1.59 3.633 3 5.085 2.697 2.781 3.01 2.84 5.059 3.227 1.808.341 3.94 1.417 3.812 4.593 1.742 1.491 3.26 3.237 5.15 4.556.035.918-.141 1.321-.753 1.724a4.54 4.54 0 0 1-.267.12c.428.815 1.388 1.256 1.582 2.237-.47-.365-.51-.358-.753-.328-.106.265.04.586-.197.817-.73-.375-1.05-1.285-1.934-1.446 1.258 1.358 1.773 3.143 2.69 4.694.749-.558.26-1.548.769-2.19 2.445 1.61 2.889 1.038 2.95-.85.055-1.662.21-2.534 2.709-1.155-.48-1.074-.438-2.333-1.174-3.316-1.23-1.635-3.123-2.556-4.414-4.116-.268-.325-.643-.752-.832-1.127-.041-.086.018-.268.11-.302 1.055-.384 1.73.617 2.65.723.038-.04.083-.094.119-.134a1.898 1.898 0 0 0-.11-.35c-.898-.732-1.803-1.46-2.716-2.178-.54-.19-.72-.144-.784-.074-.282.343.123.702-.025 1.047-.202.48-1.29-.124-2.053-1.581-.257-.49-.731-1.406-.096-2.534l.02-.037c-.518-.341-1.032-.686-1.552-1.022-.13.759-.265 1.541-.8 1.959-.804.628-3.234.215-3.132-.532.226-.141.55-.118.692-.398-.423-.38-.423-.38-7.92-5.702.096-.012.226-.045.312-.086.038-.12-.728-1.296-1.47-2.397a162.149 162.149 0 0 0-4.15-2.102c.006.034-.01.047-.001.085.43 1.871 2.428 1.96 3.51 3.09zm-169.266 65.495c1.35-5.24 3.262-6.78 7.08-9.852l.27-.219c-.226-.482-.687-.447-1.615-.264-.923.183-1.278.223-1.838.113a1.607 1.607 0 0 1-.556-.248c-.99 1.652-.99 1.652-.994 1.684.15.15.15.15.277.38-2.31 1.592-5.392 6.674-5.264 9.495 1.244.517 1.42-1.658 2.64-1.09z"/><path d="M389.206 375.55c-.432-3.076-.677-3.954-2.308-6.262-2.087.334-22.681 10.472-26.442 14.75-4.928-2.677-8.896-6.892-14.26-8.867l-12.145-22.12c3.742-9.026-3.466-17.734-.784-26.731 2.176-7.303 4.876-14.43 7.186-21.687 1.597-5.01 2.377-5.836 4.26-7.831-1.61-6.9 6.31-22.36-3.583-20.91-5.162-5-4.656-12.87-9.206-18.18 3.762-3.487 9.013-2.308 13.275-4.224.25-8.568-8.982-8.18-12.622-13.088.78-.496 1.986-.943 2.906-1.043.449-.81.777-2.05.838-2.98l1.527.355c2.289-6.807.973-9.754-.19-12.353a28.87 28.87 0 0 1 1.948-2.485c-.45-4.153-6.686-5.232-5.454-10.28 5.317 4.76 5.317 4.76 5.537 4.867a124.55 124.55 0 0 1-1.167-3.43c-7.856-3.788-7.856-3.788-8.174-3.777.139.937.134 2.223-.007 3.158-3.645-.125-13.641-6.458-11.662-13.393-6.298-9.011-6.298-9.011-8.94-9.865l.189-1.677c-.828-.634-1.858-1.595-2.475-2.434l.17-.295a158.23 158.23 0 0 0-44.376-9.477c.055.815-.01 1.644.287 2.43.28.754 1.077 1.075 1.46 1.745.13-.532-.363-.971-.22-1.503.782 1.01.99 2.426 2.214 3.13 1.54-.455 1.712 1.494 2.602 2.2-.799-.194-1.33-.833-2.015-1.211l-.14.208c2.62 2.717 2.62 2.717 2.631 2.96.19.155.19.155 1.308.15-1.142-.845-1.142-.845-1.182-1.212.638-.252.72-.285 1.92.754-.985 1.313-.985 1.313-.564 3.1a.803.803 0 0 0-.53.026c.037.894.964 1.61.515 2.598.388.204 2.358 1.326 3.265 3.272-.855-.065-1.717.149-2.57-.058.445.528.445.528 2.21.479-1.125 2.542-2.163 3.447-7.334 4.972-.764.224-1.908.366-2.498.898-1.35 1.22-1.878 3.06-3.225 4.278-.23.206-.514.51-.764.69-.605.437-1.22.515-2.072.623-.877.114-2.699.35-3.338 1.566-.415.793-.163 2.095-.436 2.946-.849 2.617-2.168 5.045-3.005 7.664-.16.512-.345 1.203-.496 1.717-9.966-2.47-12.345-6.408-13.084-12.37-.594-.42-1.344-1.165-1.56-1.86-.71-2.295.511-7.756 3.67-6.643.156-.205.185-2.381.182-2.401-.388-.275-.388-.275-1.192-.5l-.212.127c.103.538.31.575.915.545-.182.285-.457.714-1.112.933-1.714.58-3.11-.505-2.188-2.408.668.38.668.38.87.295-.24-.73-.24-.73-.149-1.087.524-.043.524-.043 2.67.459-.722-1.412-1.165-1.749-3.555-1.567.14-.754.177-.953.187-1.95.012-1.078-.152-2.158.002-3.24.701-4.975-7.606-1.6-8.649-6.23 1.268-.784 1.268-.784 1.338-.772-.197-.492-.249-.575-.942-1.064 2.207-1.203 4.87-.884 7.068-2.12l-.017-.262c-.338-.123-.692-.065-1.039-.114l-.104-.23c.513-.518.818-.564 1.02-.594.022.07.05.164.07.235.171-.126 1.01-.72 2.203-1.283-.293.027-.59.05-.883.078-2.258.753-4.633 1.142-6.837 2.057-.622.257-.68 1.07-1.302 1.326-.203.083-.472.194-.674.274-.524.207-1.495.452-1.91.558-1.652.416-1.803.483-2.784.905l.03.2c.364-.05.364-.05.51.039-.794 1.132-2.68 1.223-3.454 1.21a10.01 10.01 0 0 1-.124-.186c.16-.242.16-.242.42-.484-2.126.096-4.14-.726-6.253-.742-.872 1.162-.017 1.332 2.231 1.28 1.11-.025 2.965-.07 3.162.709.005.02.095 1.954-2.763 2.005a6.187 6.187 0 0 1-1.319-.134c-1.33-.323-2.446-1.19-3.78-1.505-.722-.172-1.454.153-2.175-.045-.07-.02-.138-.096-.2-.137.245-1.775 2.49-1.37 3.05-2.798-.122-.076-.21-.131-.278-.176-.306.08-.61.166-.915.249-.853.817-1.581 1.792-2.771 2.193-.613.205-1.223-.342-1.838-.002.512-.716.69-.965.943-1.165a158.377 158.377 0 0 0-7.374 2.357c6.136-.96 6.351-.797 8.21.78-9.536 4.063-10.106 4.305-8.45 8.54-.282.456-.655 1.069-.934 1.525.506.139 1.177.323 1.683.46 1.052-.785 2.335-2.008 3.146-3.04-.395-.36-.922-.843-1.315-1.203 2.442-9.366 15.355-3.898 15.484-3.84l-.558 1.93c4.435 5.736 4.435 5.736 4.738 6.985-.344.405-.8.944-1.145 1.348 1.323 2.236 3.695 3.605 4.903 5.937-3.279 2.556-3.279 2.556-5.203 2.612-.54-1.069-1.669-2.307-2.663-2.977-.005.778-.005.778 2.058 6.393-.825.687-1.932 1.592-2.77 2.263-.787-.763-2.04-1.578-3.044-2.017l.88 1.563-.532 1.803c-1.795-.726-3.45-1.8-5.364-2.254-.538-2.667-.538-2.667-6.991-6.1 2.122-2.05 3.247-6.759 3.257-6.805-.477-.206-1.116-.48-1.593-.683-1.523 2.279-4.518 2.337-6.32 4.193v-1.712c-.55 2.319.484 4.571.287 6.877-1.114-.174-2.564-.716-3.532-1.293-.945.446-2.312.835-3.352.95l-.81-1.656c1.976-1.334 1.976-1.334 4.782-3.718l.823-.7c-21.401 9.861-21.401 9.861-22.664 11.116.007 2.082-.72 4.122-.365 6.224 3.8 2.28 5.318 6.843 9.115 9.127a54.997 54.997 0 0 0-2.148 3.34c.4.458.933 1.066 1.33 1.524-.218 1.067-.99 2.443-1.827 3.137.346.516.81 1.203 1.156 1.72 3.327-2.718 3.327-2.718 4.96-8.27.11-.008 10.259-1.815 7.405-9.963 1.374-.993 1.374-.993 6.438-8.405 6.325.976 6.325.976 9.617 6.102-1.626 3.153-1.101 3.733.308 5.281 2.425-.295 3.331-.408 7.455-4.64 3.597 15.236 3.597 15.236 10.7 19.702a501.369 501.369 0 0 0-.607 3.86c-3.91 2.413-3.91 2.413-24.045 4.362l-1.292 1.633-.001-.002h-.017l-.737-.046c-1.152.23-2.584 1.198-3.274 2.15 4.808-2.12 5.84-1.946 8.896-1.43.323.455.754 1.063 1.075 1.52-.896.831-2.264 1.774-3.38 2.273l1.731.103c-.49 1.16-.92 2.816-1.036 4.073 3.07-5.066 8.793-9.398 11.913-3.173 3.094-2.446 4.697-6.1 7.276-8.967l2.602-.05c-.698.85-1.46 2.135-1.876 3.156 6.835 3.13 6.835 3.13 5.864 5.831l1.542.826c-.38 1.186-1.245 2.693-2.144 3.557l-1.705-.612-.468-1.98c-.906.724-2.317 1.458-3.427 1.801 0 0-.002 0 .063-.612l-.448-1.66c-1.71-.34-1.71-.34-6.23-.705.542 4.33 1.14 17.808-13.848 9.488-1.14.585-2.868 1-4.15 1.02.245-1.173.936-2.688 1.69-3.619l.565-.27c-10.861 1.11-12.428 4.447-13.807 7.39l1.242 1.386-1.626.945c-.972-.332-2.36-.532-3.383-.504-.28.434-.65 1.012-.928 1.448-1.081.045-2.523.092-3.605.12-3.121 5.776-3.2 5.915-14.177 18.945-.5-.206-.991-.426-1.478-.67-.4-.197-.75.398-.35.598.45.224.9.435 1.36.63l-.308.363c-.677-.12-1.35-.238-2.023-.36-9.962 10.324-9.962 10.324-9.347 14.994.507 3.856 2.05 15.59-7.437 13.357a86.233 86.233 0 0 1 3.106-2.387c-.025-.09-.025-.09-1.324-15.92-4.555.446-9.083-2.602-13.653-.107-1.927-1.348-4.565-3.196-7.356-3.644-11.54-1.86-19.556 25.599-10.46 35.832 6.15-1.12 6.15-1.12 7.283-1.52 1.346-8.77 8.178-6.045 11.052-4.464-3.005 5.475-4.005 11.793-7.215 17.182 12.287 4.33 12.287 4.33 13.92 6.31-.06.596-.112 1.195-.165 1.79-4.942 6.79-3.593 16.747 2.725 20.1 1.335-.476 1.335-.476 11.104 3.115.77-.892 1.994-1.923 3.01-2.522.77-6.228 12.97-7.902 13.092-7.91.216 1.218.625 2.822 1.06 3.977.722-.906 1.385-2.355 1.71-3.466 1.55 2.397 4.68 3.544 5.289 6.687 4.415.122 4.415.122 9.988 2.16.797-.818 1.637-2.215 1.82-3.34 2 2.015 5.198 2.1 7.046 4.365l.58-2.023c.495.24 1.16.558 1.656.799-.312.538-.725 1.256-1.036 1.795 5.178 4.69 9.078 10.66 14.814 14.798 4.51-1.618 4.51-1.618 16.817 5.965 1.255 6.47 7.692 9.64 9.882 15.514 13.485 2.194 23.954 13.14 38.183 13.17 1.316 3.887 2.264 6.7.166 10.994-4.155 8.506-12.615 14.787-13.02 25.23-.487.014-.974.03-1.567 1.62-1.587 2.897-3.854 5.335-5.5 8.19-19.376 5.187-19.376 5.187-18.685 10.906-6.048 7.32-6.888 8.323-13.437 11.282a159.766 159.766 0 0 0 25.38 2.03c62.769 0 117.168-36.496 143.109-89.38l.65-28.276c0-.77-.504-1.722-.725-2.464-2.121-.03-2.121-.03-6.287 2.16z"/><path d="M179.978 454.808c-16.11-13-16.11-13-16.175-13.204-3.028-9.433-11.77-14.735-16.55-22.903-.015-.028-1.578-2.894-.184-7.412l1.928-.986c-.736-.93-1.921-2.024-2.912-2.675h-.004l-.001-.002h-.01v-.002h-.002c-.146-3.43.908-6.714 1.212-10.089.52-.103 1.218-.24 1.742-.345 5.21-8.761 5.21-8.761 2.052-22.676-.68-.812-1.47-1.997-1.971-2.93-1.028.312-2.29 1.1-3.063 1.846l.892 1.603c-.33.433-.771 1.005-1.103 1.436a15.981 15.981 0 0 0-3.223-1.626c.053-.513.12-1.197.172-1.711-4.348-1.722-6.05-6.57-10.15-8.584.049-1.404.109-2.806.18-4.205-.101-.158-13.705-18.285-19.691-22.717-.555.21-1.292.493-1.846.706-4.033-3.24-14.055-11.318-15.56-32.515a159.623 159.623 0 0 0-2.54 28.402c0 64.538 38.58 120.234 93.885 145.24-.403-9.04.424-18.598-7.078-24.65zm-1.695-196.07c.055-.096.116-.225.164-.32-3.884-1.188-6.285-.972-8.294.745.42-.043.95.1 1.928.38 1.955.558 4.909 1.403 6.202-.806zm-13.116 2.274c-1.59.45-2.363 1.641-2.736 2.213 3.345-.252 5.76-.434 7.946-2.133.07-.053.16-.128.228-.182-1.2.008-2.395-.16-3.595-.14-.661.015-1.196.06-1.843.242zm-9.497-16.22c1.863.266 3.515-.709 5.3-.9-.755.696-.785.725-.858 1.316-.086.693.484 1.23.457 1.905 3.037-.55 4.423-.804 4.343 1.03.16-.147.388-.324.532-.487.345-.399.48-.737.535-1.337.106-1.165.2-1.34.648-2.166-2.426-.188-1.563-2.003-1.097-2.977-4.177-.786-6.156-.01-11.19 2.595.456.595.766.834 1.33 1.02z"/></g><g fill="#4d4d4c"><path d="M78.613 195.627a417.284 417.284 0 0 0-37.032 27.77c1.898 2.374 3.081 5.346 3.081 8.621 0 7.666-6.213 13.88-13.88 13.88a13.833 13.833 0 0 1-9.798-4.05 421.976 421.976 0 0 0-20.8 21.385c1.709 31.548 14.594 62.603 38.692 86.7l51.374 51.375c-8.545-20.6-13.285-43.178-13.285-66.868 0-42.265 15.014-81.02 39.996-111.233a473.562 473.562 0 0 0-9.133-19.177 24.835 24.835 0 0 1-9.158 1.76c-8.236 0-15.516-4.009-20.057-10.163zm39.742-30.047c14.059-7.127 28.583-13.457 43.487-19a16.89 16.89 0 0 1-.25-2.791c0-9.31 7.547-16.855 16.855-16.855 2.765 0 5.365.678 7.667 1.858a385.85 385.85 0 0 1 29.557-43.35c-6.138-5.492-10.023-13.448-10.023-22.332 0-2.425.32-4.77.863-7.03a460.312 460.312 0 0 0-50.3-11.333l-86.657 86.657c6.533 8.705 12.73 17.672 18.655 26.83a24.805 24.805 0 0 1 10.46-2.322c8.012 0 15.125 3.795 19.686 9.668zM30.78 218.138c2.231 0 4.31.576 6.177 1.512a423.741 423.741 0 0 1 38.74-29.077 24.845 24.845 0 0 1-1.968-9.721c0-7.946 3.727-15.007 9.517-19.573-5.682-8.768-11.617-17.358-17.858-25.708l-26.513 26.51C13.256 187.705.313 221.188 0 254.765c5.743-6.168 11.708-12.12 17.808-17.934-.559-1.505-.907-3.113-.907-4.812 0-7.664 6.214-13.88 13.88-13.88zm417.93-5.39a21.852 21.852 0 0 1 10.497-2.672c12.12 0 21.944 9.824 21.944 21.944 0 6.44-2.79 12.212-7.209 16.227 11.066 17.2 21.08 35.141 29.856 53.779 17.367-47.12 7.164-102.101-30.678-139.941l-3.36-3.362c-27-11.417-55.459-20.023-84.991-25.537a27.026 27.026 0 0 1-4.317 8.949 472.012 472.012 0 0 1 68.257 70.613zm-116.885-91.817a26.866 26.866 0 0 1 2.052-6.317 462.044 462.044 0 0 0-71.249-38.504c-4.847 10.042-15.095 16.99-26.992 16.99-5.58 0-10.789-1.554-15.262-4.21a380.165 380.165 0 0 0-29.565 43.467 16.852 16.852 0 0 1 2.702 3.899c36.546-10.375 75.062-16.013 114.889-16.013 7.86-.002 15.667.25 23.425.688zm-96.19-87.805c7.986 0 15.225 3.143 20.6 8.235A388.322 388.322 0 0 1 298.72 7.034c-46.37-15.711-99.687-5.11-136.65 31.852l-.806.807a464.587 464.587 0 0 1 47.16 10.873c4.755-10.288 15.134-17.44 27.21-17.44z"/><path d="M437.267 232.02c0-6.216 2.595-11.815 6.747-15.808-20.005-25.546-42.599-48.973-67.45-69.81-4.802 4.26-11.103 6.868-18.028 6.868-14.81 0-26.832-11.841-27.177-26.57a414.378 414.378 0 0 0-136.185 15.096c.076.655.128 1.317.128 1.99 0 9.31-7.547 16.856-16.855 16.856a16.87 16.87 0 0 1-2.488-.204 380.63 380.63 0 0 0-9.436 21.476c25.187-14.085 54.201-22.147 85.112-22.147 96.469 0 174.671 78.203 174.671 174.67 0 30.278-7.71 58.752-21.264 83.576l68.081-68.08a132.414 132.414 0 0 0 27.678-40.485c-9.184-20.113-19.813-39.425-31.668-57.878a21.83 21.83 0 0 1-9.925 2.39c-12.117.003-21.94-9.82-21.94-21.94zm-273.506-79.977a413.235 413.235 0 0 0-42.382 18.542 24.816 24.816 0 0 1 2.23 10.265c0 8.455-4.22 15.914-10.653 20.424a473.794 473.794 0 0 1 8.217 17.07 175.469 175.469 0 0 1 37.224-31.578 386.105 386.105 0 0 1 11.969-28.186 16.9 16.9 0 0 1-6.605-6.537zM264.62 70.67a467.455 467.455 0 0 1 72.236 38.995c4.968-6.56 12.816-10.814 21.678-10.814 15.029 0 27.21 12.183 27.21 27.21 0 .457-.047.903-.068 1.354 25.37 4.723 49.963 11.693 73.53 20.753L349.926 38.884c-13.127-13.127-28.324-22.92-44.534-29.402a382.182 382.182 0 0 0-45.35 36.251c3.5 4.906 5.58 10.895 5.58 17.38 0 2.614-.37 5.14-1 7.557z"/></g></svg>